<svg width="122" height="48" viewBox="0 0 122 48" fill="none" xmlns="http://www.w3.org/2000/svg">
<path d="M87.6166 15.6138C87.6166 15.4131 87.6166 15.0788 87.6166 14.7444C87.6166 14.5438 87.4829 14.3432 87.4829 14.0757C87.2823 13.0058 86.6806 12.2033 85.7445 11.6015C84.8084 11.0665 83.8055 11.0665 82.8694 11.6015C81.5322 12.337 81.0642 13.5407 80.8636 14.945C80.7299 15.7475 80.7967 16.55 81.0642 17.2856C81.2648 18.0211 81.5991 18.623 82.134 19.158C83.5381 20.4285 85.6776 20.2948 86.8811 18.623C87.416 17.7537 87.6166 16.8174 87.6166 15.6138ZM81.131 8.59224C81.2648 8.52537 81.4653 8.52537 81.5322 8.45849C82.8026 7.58916 84.2067 7.32168 85.6776 7.45542C86.6137 7.58916 87.4829 7.78978 88.2852 8.32475C89.0207 8.79285 89.6225 9.32783 90.1574 9.99654C90.6923 10.6653 91.1603 11.4008 91.4946 12.2033C91.6283 12.5377 91.6952 12.9389 91.762 13.3401C91.8958 13.8082 91.9626 14.3432 91.9626 14.8782C91.9626 15.6806 91.9626 16.4831 91.8958 17.2187C91.8289 17.6868 91.6952 18.1549 91.5615 18.6899C91.294 19.7598 90.6923 20.696 89.9568 21.4985C89.1544 22.4347 88.2184 23.1703 87.0817 23.5715C86.0788 23.9727 85.009 23.9058 83.9392 23.839C83.1369 23.7721 82.4683 23.5715 81.8665 23.1034C81.6659 22.9696 81.5322 22.769 81.3316 22.6353C81.131 22.4347 80.9973 22.4347 80.7967 22.6353C80.7299 22.769 80.5961 22.8359 80.5293 22.9696C80.1281 23.5715 79.5932 23.839 78.9246 23.7721C78.5234 23.7721 78.1223 23.839 77.7211 23.6384C77.4536 23.5046 77.2531 23.3709 77.1193 23.1034C76.8519 22.6353 76.6513 22.2341 76.5844 21.6991C76.5844 21.0972 76.5176 20.5623 76.5176 19.9604C76.5176 15.0788 76.5176 10.264 76.5176 5.3824C76.5176 4.71368 76.5844 4.11184 76.8519 3.50999C76.9856 3.17563 77.1862 2.77441 77.5205 2.64066C78.1223 2.3063 78.7909 2.23943 79.4595 2.37317C80.3956 2.64066 80.7299 3.37625 80.9305 4.24558C81.1979 5.58301 81.0642 6.92045 81.0642 8.25788C81.131 8.32475 81.131 8.39162 81.131 8.59224Z" fill="#4A4A4A"/>
<path d="M58.5995 16.0802C58.7332 15.679 58.867 15.3446 58.9338 15.0772C59.2013 14.3416 59.4687 13.606 59.6693 12.9373C59.9368 12.2017 60.2042 11.533 60.4716 10.7974C60.7391 10.0618 61.0065 9.25932 61.274 8.52374C61.4746 7.98876 61.6083 7.45379 61.8089 6.91882C61.9426 6.51759 62.1432 6.04949 62.2769 5.64826C62.4775 5.04641 62.7449 4.51144 62.9455 3.90959C63.0124 3.70898 63.1461 3.50836 63.213 3.30775C63.4804 2.77277 63.9485 2.50529 64.4834 2.37154C65.4194 2.17093 66.7567 2.43842 67.2247 3.57523C67.2915 3.64211 67.2915 3.77585 67.2915 3.84272C67.3584 4.71205 67.2915 5.51451 66.9572 6.31697C66.5561 7.1863 66.2886 8.05563 65.9543 8.92497C65.8206 9.3262 65.5531 9.72743 65.4194 10.1287C65.0851 10.998 64.7508 11.8673 64.4165 12.7366C64.2159 13.2048 64.0153 13.6729 63.8147 14.141C63.5473 14.7428 63.3467 15.4115 63.0793 16.0134C62.8118 16.6821 62.5444 17.4177 62.2769 18.0864C62.0095 18.7551 61.8089 19.4238 61.4746 20.0925C61.1403 20.9619 60.7391 21.7643 60.3379 22.6337C60.0036 23.4361 59.2681 23.7705 58.4658 23.8373C57.9978 23.9042 57.5966 23.7705 57.2623 23.6367C56.8611 23.503 56.5937 23.1018 56.3931 22.7674C56.1256 22.3662 55.9919 21.8981 55.7913 21.43C55.5907 20.9619 55.3902 20.4269 55.1896 19.9588C54.9221 19.2901 54.6547 18.6882 54.3872 18.0195C54.1198 17.3508 53.8523 16.6821 53.5849 16.0134C53.3843 15.6121 53.2506 15.144 53.05 14.7428C52.7826 14.0741 52.5151 13.4054 52.2477 12.7366C51.9802 12.1348 51.7128 11.4661 51.5122 10.8642C51.3116 10.3961 51.1779 9.99491 50.9773 9.52681C50.643 8.65748 50.3087 7.78815 49.9744 6.91882C49.8406 6.65133 49.7738 6.38384 49.6401 6.11636C49.2389 5.44764 49.3057 4.71205 49.4395 4.04333C49.6401 3.30775 50.1081 2.7059 50.9104 2.57216C50.9773 2.57216 51.0441 2.50529 51.111 2.50529C51.9134 2.2378 53.05 2.50529 53.4512 3.44149C53.7855 4.24395 54.1198 5.11328 54.4541 5.91574C54.9221 7.05256 55.3233 8.18938 55.7245 9.3262C55.8582 9.72743 55.9919 10.1955 56.1256 10.5968C56.3931 11.3323 56.6605 12.0679 56.928 12.8704C57.1954 13.5391 57.396 14.2747 57.6635 14.9434C57.7303 15.2109 57.864 15.4784 57.9309 15.7459C58.2652 15.7459 58.3989 15.8796 58.5995 16.0802Z" fill="#4A4A4A"/>
<path d="M101.324 14.3433C101.591 14.3433 101.858 14.3433 102.126 14.3433C102.928 14.3433 103.664 14.3433 104.466 14.3433C104.8 14.3433 104.934 14.2096 104.867 13.8752C104.867 13.7415 104.8 13.6746 104.733 13.5409C104.533 12.6715 103.998 12.0028 103.263 11.4678C102.861 11.2004 102.393 11.1335 101.992 10.9997C101.39 10.866 100.922 10.9997 100.387 11.1335C99.5851 11.3341 98.9165 11.8691 98.5153 12.6047C98.3147 13.0059 98.1142 13.474 97.9804 13.9421C97.9136 14.2096 98.0473 14.3433 98.3147 14.3433C99.2508 14.3433 100.254 14.3433 101.324 14.3433ZM102.995 16.8844C101.524 16.8844 100.053 16.8844 98.5822 16.8844C98.5153 16.8844 98.4485 16.8844 98.3816 16.8844C98.1142 16.8844 97.9804 17.0851 98.0473 17.3525C98.181 17.6869 98.3147 18.0213 98.5822 18.2887C99.0502 18.8237 99.5851 19.3587 100.254 19.5593C101.056 19.8268 101.858 19.9605 102.728 19.7599C103.263 19.6262 103.797 19.5593 104.265 19.2918C104.733 19.0912 105.201 18.8906 105.67 18.69C106.071 18.4894 106.472 18.2887 106.94 18.2887C107.809 18.2887 108.545 19.0912 108.545 19.9605C108.611 21.0974 107.943 21.8329 107.074 22.4348C106.539 22.7691 105.937 23.1704 105.268 23.371C104.6 23.5716 103.931 23.7054 103.196 23.8391C102.527 23.906 101.858 23.906 101.19 23.906C100.187 23.906 99.2508 23.7722 98.3816 23.371C97.6461 23.0366 96.9775 22.6354 96.3757 22.1673C95.1722 21.2311 94.3699 19.8937 93.835 18.4894C93.6344 17.8875 93.5676 17.2188 93.5007 16.5501C93.367 15.6808 93.5007 14.8114 93.6344 13.9421C93.7013 13.1396 94.0356 12.404 94.3699 11.6685C95.1054 10.331 96.1083 9.26108 97.3787 8.39175C98.0473 7.99052 98.7159 7.7899 99.4514 7.58929C100.12 7.45554 100.855 7.38867 101.524 7.38867C102.26 7.38867 102.995 7.58929 103.664 7.7899C104.667 8.05739 105.469 8.52549 106.204 9.19421C107.007 9.86292 107.675 10.6654 108.077 11.6685C108.545 12.8053 108.879 14.009 108.879 15.2795C108.879 15.6808 108.745 15.9482 108.611 16.2826C108.411 16.6838 108.01 16.8176 107.542 16.8176C107.007 16.8844 106.539 16.8176 106.004 16.8176C105.135 16.8844 104.065 16.8844 102.995 16.8844Z" fill="#4A4A4A"/>
<path d="M115.631 9.05907C115.832 8.85845 115.965 8.79158 116.099 8.65784C116.901 7.92225 117.904 7.58789 118.974 7.58789C119.977 7.58789 120.779 8.32348 121.047 9.25968C121.247 9.9284 121.114 10.5971 120.445 11.0652C119.776 11.5333 119.108 11.9345 118.305 12.202C117.637 12.4026 116.968 12.6701 116.367 13.1382C115.898 13.5395 115.631 14.0744 115.631 14.6763C115.631 16.6156 115.631 18.5548 115.631 20.4941C115.631 21.2297 115.497 21.8984 115.23 22.5671C114.829 23.5702 113.759 23.9046 112.823 23.7708C111.954 23.6371 111.486 23.1021 111.218 22.2328C111.084 21.7647 111.018 21.2297 111.018 20.7616C111.018 17.3511 111.018 14.0076 111.018 10.5971C111.018 10.0621 111.084 9.4603 111.285 8.92532C111.552 8.12286 112.154 7.72163 112.957 7.65476C113.893 7.58789 114.561 7.92225 115.163 8.59097C115.43 8.79158 115.497 8.92532 115.631 9.05907Z" fill="#4A4A4A"/>
<path d="M69.4985 16.1491C69.4985 14.4774 69.4985 12.7387 69.4985 11C69.4985 10.5319 69.6322 10.0638 69.7659 9.66259C70.1003 8.86013 70.9695 8.52578 71.9724 8.65952C72.9084 8.79326 73.5771 9.46198 73.6439 10.5319C73.7108 11.3344 73.7108 12.2037 73.7108 13.0062C73.7108 15.6142 73.7108 18.289 73.7108 20.897C73.7108 21.4989 73.7108 22.1007 73.4433 22.6357C73.109 23.3713 72.5073 23.7056 71.7049 23.7725C70.9695 23.7725 70.3008 23.6388 69.8997 22.97C69.6322 22.5019 69.4316 21.967 69.4316 21.3651C69.4985 19.6265 69.4985 17.8878 69.4985 16.1491Z" fill="#4A4A4A"/>
<path d="M74.0472 4.71308C74.2478 5.98364 72.9774 7.05359 71.7739 7.05359C70.1692 7.05359 69.3 5.91677 69.3669 4.64621C69.3669 3.24191 70.3698 2.30571 71.8408 2.30571C72.9105 2.23883 74.2478 3.30878 74.0472 4.71308Z" fill="#4A4A4A"/>
<path d="M64.55 28.3184C63.6808 28.3184 63.2128 28.9202 63.2128 30.1908V35.2061L58.6662 29.1877C58.4656 28.9202 58.265 28.7196 58.0644 28.5858C57.8639 28.4521 57.5964 28.3852 57.2621 28.3852C56.7941 28.3852 56.5266 28.519 56.326 28.8533C56.1255 29.1877 56.0586 29.5889 56.0586 30.1908V38.0816C56.0586 39.2853 56.5266 39.954 57.3958 39.954C58.265 39.954 58.7331 39.3522 58.7331 38.0816V33.2L63.2128 39.0847C63.6808 39.6865 64.2157 40.0209 64.7506 40.0209C65.2186 40.0209 65.4861 39.8872 65.6867 39.5528C65.8873 39.2853 65.9541 38.8841 65.9541 38.3491V30.1908C65.8873 28.9871 65.4192 28.3184 64.55 28.3184Z" fill="#4A4A4A"/>
<path d="M73.7784 37.2806H71.7057V35.3414H73.4441C74.6476 35.3414 75.3162 34.9401 75.3162 34.0708C75.3162 33.2683 74.7145 32.8002 73.4441 32.8002H71.7057V30.9278H73.7116C74.9819 30.9278 75.5837 30.5266 75.5837 29.6573C75.5837 28.7879 74.9819 28.3867 73.7116 28.3867H70.8365C70.101 28.3867 69.633 28.5205 69.3656 28.8548C69.0981 29.1223 69.0312 29.5904 69.0312 30.2591V38.0162C69.0312 38.6181 69.165 39.0862 69.4324 39.2868C69.6999 39.5543 70.1679 39.688 70.8365 39.688H73.7784C75.0488 39.688 75.6506 39.2868 75.6506 38.4175C75.6506 37.6819 74.9819 37.2806 73.7784 37.2806Z" fill="#4A4A4A"/>
<path d="M84.3397 28.4531H79.9268C78.6564 28.4531 78.0547 28.8544 78.0547 29.7237C78.0547 30.5261 78.6564 30.9942 79.9268 30.9942H80.796V38.0158C80.796 39.2195 81.2641 39.8882 82.1333 39.8882C83.0025 39.8882 83.4705 39.2863 83.4705 38.0158V30.9942H84.3397C85.6101 30.9942 86.2118 30.593 86.2118 29.7237C86.2787 28.9212 85.6101 28.4531 84.3397 28.4531Z" fill="#4A4A4A"/>
<path d="M90.2253 36.8789C89.8242 36.8789 89.4898 37.0126 89.1555 37.347C88.8881 37.6145 88.6875 38.0157 88.6875 38.417C88.6875 38.8182 88.8212 39.2194 89.0887 39.4869C89.3561 39.7544 89.7573 39.955 90.1585 39.955C90.5596 39.955 90.9608 39.8213 91.2282 39.4869C91.4957 39.2194 91.6963 38.8182 91.6963 38.417C91.6963 38.0157 91.5626 37.6145 91.2282 37.347C90.9608 37.0126 90.6265 36.8789 90.2253 36.8789Z" fill="#4A4A4A"/>
<path d="M102.328 28.3184C101.459 28.3184 100.991 28.9202 100.991 30.1908V34.4037C100.991 36.343 100.255 37.2792 98.8512 37.2792C97.3802 37.2792 96.7116 36.343 96.7116 34.4037V30.1908C96.7116 28.9202 96.2435 28.3184 95.3743 28.3184C94.5051 28.3184 94.0371 28.9202 94.0371 30.1908V34.6712C94.0371 36.343 94.5051 37.6804 95.3743 38.5497C96.2435 39.4191 97.4471 39.8872 98.918 39.8872C100.389 39.8872 101.592 39.4191 102.462 38.5497C103.331 37.6804 103.799 36.343 103.799 34.6712V30.1908C103.665 28.9871 103.197 28.3184 102.328 28.3184Z" fill="#4A4A4A"/>
<path d="M111.889 35.0055H109.549L110.752 31.3276L111.889 35.0055ZM115.7 38.2822C115.633 38.1485 115.633 38.0148 115.566 37.8141L112.758 29.7895C112.424 28.7865 111.755 28.3184 110.819 28.3184C109.883 28.3184 109.215 28.8533 108.813 29.9902L105.938 37.881C105.872 38.0816 105.805 38.3491 105.805 38.6166C105.805 39.0178 105.938 39.2853 106.139 39.5528C106.406 39.7534 106.674 39.8872 107.075 39.8872C107.677 39.8872 108.145 39.4859 108.345 38.7503L108.813 37.4129H112.625L113.026 38.6835C113.293 39.4859 113.761 39.954 114.43 39.954C114.831 39.954 115.098 39.8203 115.366 39.6197C115.633 39.4191 115.767 39.0847 115.767 38.7503C115.767 38.5497 115.7 38.416 115.7 38.2822Z" fill="#4A4A4A"/>
<path d="M40.3469 4.7127C39.2102 3.64275 34.4631 0.0985576 23.9658 0.031686C23.9658 0.031686 11.5964 -0.703901 5.57882 4.91332C2.23573 8.32377 1.03222 13.406 0.898497 19.6251C0.764773 25.8441 0.631049 37.5467 11.5964 40.7565V45.5713C11.5964 45.5713 11.5295 47.5106 12.7999 47.9118C14.3377 48.3799 15.2069 46.9087 16.6779 45.3038C17.4802 44.4345 18.55 43.097 19.4192 42.1608C26.9746 42.8295 32.7247 41.2915 33.3933 41.0909C34.9311 40.5559 43.4894 39.486 44.8935 27.7834C46.3645 15.7465 44.2249 8.12315 40.3469 4.7127ZM41.6173 26.981C40.4138 36.7442 33.4601 37.3461 32.1898 37.8142C31.6549 38.0148 26.5734 39.2853 20.1547 38.8841L13.201 46.5075V37.6135H13.1342C3.84041 34.9387 4.10786 25.0417 4.24158 19.8257C4.3753 14.6097 5.31137 10.3299 8.11956 7.45444C13.201 2.70655 23.7652 3.44214 23.7652 3.44214C32.6578 3.50901 36.937 6.25075 37.873 7.12008C41.1492 9.99556 42.8208 16.8833 41.6173 26.981Z" fill="#7360F2"/>
<path fill-rule="evenodd" clip-rule="evenodd" d="M10.2012 13.3327C10.2012 11.8599 11.6595 10.666 13.4584 10.666H33.6066C35.4056 10.666 36.8639 11.8599 36.8639 13.3327C36.8639 14.8054 35.4056 15.9993 33.6066 15.9993H13.4584C11.6595 15.9993 10.2012 14.8054 10.2012 13.3327Z" fill="#7360F2"/>
<path fill-rule="evenodd" clip-rule="evenodd" d="M10.2012 21.3327C10.2012 19.8599 11.6595 18.666 13.4584 18.666H33.6066C35.4056 18.666 36.8639 19.8599 36.8639 21.3327C36.8639 22.8054 35.4056 23.9993 33.6066 23.9993H13.4584C11.6595 23.9993 10.2012 22.8054 10.2012 21.3327Z" fill="#7360F2"/>
<path fill-rule="evenodd" clip-rule="evenodd" d="M10.2012 29.3327C10.2012 27.8599 11.6251 26.666 13.3815 26.666H23.0184C24.7749 26.666 26.1988 27.8599 26.1988 29.3327C26.1988 30.8054 24.7749 31.9993 23.0184 31.9993H13.3815C11.6251 31.9993 10.2012 30.8054 10.2012 29.3327Z" fill="#7360F2"/>
</svg>
